/* XPM */
static const char *ZGIzMi1DaGFyKyUyODElMjk_[] = {
/* columns rows colors chars-per-pixel */
"64 64 229 2 ",
"   c #030414",
".  c #03051C",
"X  c #0C0D1C",
"o  c #050B1D",
"O  c #150C15",
"+  c #0E111D",
"@  c #14121B",
"#  c #17121A",
"$  c #361E1C",
"%  c #050B23",
"&  c #020D2A",
"*  c #070922",
"=  c #0C1326",
"-  c #05112C",
";  c #0B132C",
":  c #071024",
">  c #151423",
",  c #191624",
"<  c #1A1926",
"1  c #12142B",
"2  c #1A1728",
"3  c #1C1B2B",
"4  c #15182A",
"5  c #061434",
"6  c #131933",
"7  c #1C1C31",
"8  c #181D3B",
"9  c #0D0C2D",
"0  c #211D2E",
"q  c #231925",
"w  c #351F22",
"e  c #211F32",
"r  c #281537",
"t  c #301A38",
"y  c #1B213D",
"u  c #29212E",
"i  c #372429",
"p  c #232135",
"a  c #2A2334",
"s  c #26233A",
"d  c #29253D",
"f  c #2F2C3C",
"g  c #362A35",
"h  c #342B3C",
"j  c #37273B",
"k  c #343239",
"l  c #532A1F",
"z  c #773619",
"x  c #481D25",
"c  c #472C2D",
"v  c #56292A",
"b  c #56322D",
"n  c #442B32",
"m  c #472938",
"M  c #4C3335",
"N  c #4B353A",
"B  c #443137",
"V  c #5B3A3A",
"C  c #563537",
"Z  c #512834",
"A  c #7A3B29",
"S  c #643733",
"D  c #71382D",
"F  c #67423B",
"G  c #774939",
"H  c #7E4125",
"J  c #292741",
"K  c #2B2945",
"L  c #2D2C4B",
"P  c #242841",
"I  c #362A46",
"U  c #283148",
"Y  c #3C394B",
"T  c #2A2B54",
"R  c #312E52",
"E  c #2F3256",
"W  c #323154",
"Q  c #35345C",
"!  c #373A56",
"~  c #373664",
"^  c #393866",
"/  c #3D3B6C",
"(  c #3A3664",
")  c #3E3E72",
"_  c #2E3068",
"`  c #452C42",
"'  c #463944",
"]  c #413C74",
"[  c #295469",
"{  c #3C4979",
"}  c #324C66",
"|  c #4D424A",
" . c #574448",
".. c #4E4752",
"X. c #4A4654",
"o. c #544B56",
"O. c #59515C",
"+. c #744C41",
"@. c #635154",
"#. c #715B5A",
"$. c #414176",
"%. c #42427B",
"&. c #4E526F",
"*. c #725B63",
"=. c #706668",
"-. c #803F20",
";. c #A84C17",
":. c #B5561C",
">. c #AC5019",
",. c #87482B",
"<. c #8A5238",
"1. c #945739",
"2. c #9D5B38",
"3. c #9F542E",
"4. c #AD5A28",
"5. c #B65B25",
"6. c #A45C34",
"7. c #AB5E30",
"8. c #B45E31",
"9. c #BB632C",
"0. c #BB6028",
"q. c #A86139",
"w. c #B66636",
"e. c #CE570D",
"r. c #D95B07",
"t. c #C75D19",
"y. c #DB6618",
"u. c #CF6018",
"i. c #E56A15",
"p. c #ED731E",
"a. c #C96729",
"s. c #DD6D22",
"d. c #D26E2B",
"f. c #DE7227",
"g. c #DD732A",
"h. c #C56C34",
"j. c #CC7338",
"k. c #DE7933",
"l. c #DC7A37",
"z. c #E16F21",
"x. c #E0752B",
"c. c #E87627",
"v. c #FC7D22",
"b. c #F37A24",
"n. c #E27B33",
"m. c #E17F39",
"M. c #895C49",
"N. c #835B5B",
"B. c #946953",
"V. c #A66B4A",
"C. c #AE7552",
"Z. c #87736E",
"A. c #CD7A43",
"S. c #FC8329",
"D. c #E3823C",
"F. c #EB8339",
"G. c #F88938",
"H. c #FF9236",
"J. c #BD997D",
"K. c #B68A6C",
"L. c #CE8B5B",
"P. c #D78F5B",
"I. c #DD8E54",
"U. c #E48947",
"Y. c #FE9443",
"T. c #FA984A",
"R. c #E49154",
"E. c #E5985E",
"W. c #F59C57",
"Q. c #EE8D47",
"!. c #FFA75B",
"~. c #C49A7B",
"^. c #D89361",
"/. c #E39D68",
"(. c #DEA272",
"). c #FAAA6A",
"_. c #E8AA77",
"`. c #F2AD74",
"'. c #F7B279",
"]. c #EAA873",
"[. c #3B5E92",
"{. c #3B598C",
"}. c #35618B",
"|. c #39699B",
" X c #3E6DAA",
".X c #454581",
"XX c #424C85",
"oX c #494B95",
"OX c #42528E",
"+X c #4A5FB3",
"@X c #4D57AD",
"#X c #436DB3",
"$X c #5867D3",
"%X c #4E74D3",
"&X c #5271D3",
"*X c #B39985",
"=X c #BBA795",
"-X c #BEA58E",
";X c #C5A58B",
":X c #DAAB84",
">X c #C0A893",
",X c #D9B698",
"<X c #E2AF84",
"1X c #EDBA8C",
"2X c #E7B486",
"3X c #F6BA86",
"4X c #EABD93",
"5X c #D0B9A3",
"6X c #FDC48A",
"7X c #FFC789",
"8X c #EDC39B",
"9X c #EDC095",
"0X c #F7C696",
"qX c #FFD194",
"wX c #EECAA4",
"eX c #ECCDAB",
"rX c #EAC8A4",
"tX c #F1CCA7",
"yX c #FFDAAC",
"uX c #F8D3AA",
"iX c #ECD2B2",
"pX c #E7D3B8",
"aX c #F2D4B2",
"sX c #FBDCB5",
"dX c #E9CEB0",
"fX c #FFE8B9",
"gX c #FFE0AE",
"hX c #F4E0C3",
"jX c None",
/* pixels */
"jXjXjXjXjXjXjXjXjXjXjXjXjXjXjXjXjXjXjXjXjXjXjXjXjXjXjXjXjXjXjXjXjXjXjXjXjXjXjXjXjXjXjXjXjXjXjXjXjXjXjXjXjXjXjXjXjXjXjXjXjXjXjXjX",
"jXjXjXjXjXjXjXjXjXjXjXjXjXjXjXjXjXjXjXjXjXjXjXjXjXjXjXjXjXjXjXjXjXjXjXjXjXjXjXjXjXjXjXjXjXjXjXjXjXjXjXjXjXjXjXjXjXjXjXjXjXjXjXjX",
"jXjXjXjXjXjXjXjXjXjXjXjXjXjXjXjXjXjXjXjXjXjXjXjXjXjXjXjXjXjXjXjXjXjXjXjXjXjXjXjXjXjXjXjXjXjXjXjXjXjXjXjXjXjXjXjXjXjXjXjXjXjXjXjX",
"jXjXjXjXjXjXjXjXjXjXjXjXjXjXjXjXjXjXjXjXjXjXjXjXjXjXjXjXjXjXjXjXjXjXjXjXjXjXjXjXjXjXjXjXjXjXjXjXjXjXjXjXjXjXjXjXjXjXjXjXjXjXjXjX",
"jXjXjXjXjXjXjXjXjXjXjXjXjXjXjXjXjXjXjXjXjXjXjXjXjXjXjXjXjXjX, p s < jXjXjXjXjXjXjXjXjXjXjXjXjXjXjXjXjXjXjXjXjXjXjXjXjXjXjXjXjXjX",
"jXjXjXjXjXjXjXjXjXjXjXjXjXjXjXjXjXjXjXjXjXjXjXjXjXjX# =   . a ` t 2 = = , @ jXjXjXjXjXjXjXjXjXjXjXjXjXjXjXjXjXjXjXjXjXjXjXjXjXjX",
"jXjXjXjXjXjXjXjXjXjXjXjXjXjXjXjXjXjXjXjXjXjXjXjXjXjX> Y =.#.m Z N.N. .g h s @ jXjXjXjXjXjXjXjXjXjXjXjXjXjXjXjXjXjXjXjXjXjXjXjXjX",
"jXjXjXjXjXjXjXjXjXjXjXjXjXjXjXjXjXjXjXjXjXjXjXjXjXjX. o.,X<XM.M.:X2XM.v Z ` h 3 jXjXjXjXjXjXjXjXjXjXjXjXjXjXjXjXjXjXjXjXjXjXjXjX",
"jXjXjXjXjXjXjXjXjXjXjXjXjXjXjXjXjXjXjXjXjXjXjXjX, s j m S B.2X2XV.S m C S S M j s > jXjXjXjXjXjXjXjXjXjXjXjXjXjXjXjXjXjXjXjXjXjX",
"jXjXjXjXjXjXjXjXjXjXjXjXjXjXjXjXjXjXjXjXjXjXjXjX4 h V b x N *.*.` r r I I m m ` I 7 jXjXjXjXjXjXjXjXjXjXjXjXjXjXjXjXjXjXjXjXjXjX",
"jXjXjXjXjXjXjXjXjXjXjXjXjXjXjXjXjXjXjXjXjXjXjXjX4 g C C I j v D A A A A A S m a 3 jXjXjXjXjXjXjXjXjXjXjXjXjXjXjXjXjXjXjXjXjXjXjX",
"jXjXjXjXjXjXjXjXjXjXjXjXjXjXjXjXjXjXjXjXjXjXjXjX2 d m m m D a.v.S.n.n.S.S.h.N - jXjXjXjXjXjXjXjXjXjXjXjXjXjXjXjXjXjXjXjXjXjXjXjX",
"jXjXjXjXjXjXjXjXjXjXjXjXjXjXjXjXjXjXjXjXjXjXjXjX, s I S 8.i.i.n.`.0X4X6XqX~.| o jXjXjXjXjXjXjXjXjXjXjXjXjXjXjXjXjXjXjXjXjXjXjXjX",
"jXjXjXjXjXjXjXjXjXjXjXjXjXjXjXjXjXjXjXjXjXjXjXjX0 P y b a.G.W.<X8XrXdXsXfX,XO.% jXjXjXjXjXjXjXjXjXjXjXjXjXjXjXjXjXjXjXjXjXjXjXjX",
"jXjXjXjXjXjXjXjXjXjXjXjXjXjXjXjXjXjXjXjXjXjXjXjXjX= 5 i ;.F.3XpXiX9X'.`.~.Z.h   jXjXjXjXjXjXjXjXjXjXjXjXjXjXjXjXjXjXjXjXjXjXjXjX",
"jXjXjXjXjXjXjXjXjXjXjXjXjXjXjXjXjXjXjXjXjXjXjXjXjXjX; C 9.T.3XeXrX`.n.;.w % jXjXjXjXjXjXjXjXjXjXjXjXjXjXjXjXjXjXjXjXjXjXjXjXjXjX",
"jXjXjXjXjXjXjXjXjXjXjXjXjXjXjXjXjXjXjXjXjXjXjXjX- s V V.:XuXaX3XQ.0.b 1 jXjXjXjXjXjXjXjXjXjXjXjXjXjXjXjXjXjXjXjXjXjXjXjXjXjXjXjX",
"jXjXjXjXjXjXjXjXjXjXjXjXjXjXjXjXjXjXjXjX: & . # A 5.t.d.R./.E.Q.c.t.G f : % - + jXjXjXjXjXjXjXjXjXjXjXjXjXjXjXjXjXjXjXjXjXjXjXjX",
"jXjXjXjXjXjXjXjXjXjXjXjXjXjXjXjXjXjXjXO l F @.B.I.T.T.D.y.r.r.y.z.k.j.q.G V M i X jXjXjXjXjXjXjXjXjXjXjXjXjXjXjXjXjXjXjXjXjXjXjX",
"jXjXjXjXjXjXjXjXjXjXjXjXjXjXjXjXjXjXy F a.Y.6XaXeXrXeX1XU.g.x.n.f.s.s.c.p.x.w.M.N q jXjXjXjXjXjXjXjXjXjXjXjXjXjXjXjXjXjXjXjXjXjX",
"jXjXjXjXjXjXjXjXjXjXjXjXjXjXjXjX. Y *X0X0X1X8XtXtXwXwX8X1X9X8X_.n.y.z.z.i.D.2X2XD.;.i & jXjXjXjXjXjXjXjXjXjXjXjXjXjXjXjXjXjXjXjX",
"jXjXjXjXjXjXjXjXjXjXjXjXjXjX= $ z h.3XfXhX8X/.D.D.E.2X8XwXwXwX8X2XR.x.g.R.2X8XqX6X/.B.M q + jXjXjXjXjXjXjXjXjXjXjXjXjXjXjXjXjXjX",
"jXjXjXjXjXjXjXjXjXjXjXjXjXjX& ' A.!.3X4X2XI.j.e.r.F.1XiXwX4X8XaXhX1Xn.n.1XhXiX8X1X/.V.G h ; jXjXjXjXjXjXjXjXjXjXjXjXjXjXjXjXjXjX",
"jXjXjXjXjXjXjXjXjXjXjXjXjXjX#  .;XsXaX_.F.t.<.<.a.F.`.8XwX8X1X4X8X].n.n.].wX8X].n.u.4.+.B 2 jXjXjXjXjXjXjXjXjXjXjXjXjXjXjXjXjXjX",
"jXjXjXjXjXjXjXjXjXjXjXjX- c ;.n.'.iXpX3XH.:.c K +.9.s.R.9X4XU.y.x.n.g.g.k.n.c.d.6.6.a.d.2.F h > jXjXjXjXjXjXjXjXjXjXjXjXjXjXjXjX",
"jXjXjXjXjXjXjXjXjXjXjXjX&  .L.7XuX0X).U.1.c jXjXa F 3.a.D.E.].R.y.r.s.s.r.c.W.K.| b 0.S.b.6.B & jXjXjXjXjXjXjXjXjXjXjXjXjXjXjXjX",
"jXjXjXjXjXjXjXjXjXjXjXjXo o.>XuX3XI.0.z , jXjXjXjX7 ' ,.e.F.9XeX].m.g.g.l.`.yX=X! q ,.x.b.a.F p jXjXjXjXjXjXjXjXjXjXjXjXjXjXjXjX",
"jXjXjXjXjXjXjXjXjXjXjXjX  X.=X6XH.>.n - jXjXjXjXjXjX& n 5.G.'.eXaX_.n.k._.sXyXJ.' 0 S w.g.f.w.G h ; jXjXjXjXjXjXjXjXjXjXjXjXjXjX",
"jXjXjXjXjXjXjXjXjXjXjXjX  X.=X7XY.>.c - jXjXjXjXjXjX- c 5.G.'.eXiX_.n.k._.sXyXJ.' 0 F w.d.b.v.9.N & jXjXjXjXjXjXjXjXjXjXjXjXjXjX",
"jXjXjXjXjXjXjXjXjXjX  k Z.~.^.G.S.a.V 5 jXjXjXjXjXjX; c :.Q.3XpXdX].k.k.(.aXsX-X| 1 a G 6.h.w.1.G N 0 X jXjXjXjXjXjXjXjXjXjXjXjX",
"jXjXjXjXjXjXjXjXjXjX. O.,XqXG.e.:.G i o jXjXjXjXjXjX- M a.S.!.3XyX3Xc.c.3XgX7XL.V & . < B G 1.w.h.2.N 1 jXjXjXjXjXjXjXjXjXjXjXjX",
"jXjXjXjXjXjXjXjXjXjX. ..-X6XY.4.n & jXjXjXjXjXjXjXjX- M 7.y.u.j.:X:Xl.l.:X<XD.;.c - jXjX% N 9.v.v.8.M & jXjXjXjXjXjXjXjXjXjXjXjX",
"jXjXjXjXjXjXjXjXjXjX. o.>X7XH.:.n - jXjXjXjXjXjXjXjX, a a i g u a ..Z.Z...a u g d , jXjX= I G h.b.9.M & jXjXjXjXjXjXjXjXjXjXjXjX",
"jXjXjXjXjXjXjXjXjXjX. o.5XqXY.:.b 1 jXjXjXjXjXjXO 7 W ^ _ T 8 : * 8 ! ! 3 % ; y s < jXjXjX> s G t.y.<.' 0 X jXjXjXjXjXjXjXjXjXjX",
"jXjXjXjXjXjXjXjXjXjX% | K.!.G.4.g & jXjXjXjXjXjX, R ] .X%.} ! K a 0 , 7 L L a 0 s 2 jXjXjXjX* Y C.T.k.,.B 6 jXjXjXjXjXjXjXjXjXjX",
"jXjXjXjXjXjXjXjXjXjX- N w.v.v.5.V 3 jXjXjXjXjXjX> K ( { }.}.XX/ L p 3 L ) ) L p s 3 jXjXjXjX# @.;X6XT.5.M - jXjXjXjXjXjXjXjXjXjX",
"jXjXjXjXjXjXjXjXjXjX. ..;X'.D.y.y.6.B : jXjXjXjX< P [ |.&X$XoX/ ] ^ s s ^ .X%.~ K > jXjX% B 4.i.s.R.6X;X... jXjXjXjXjXjXjXjXjXjX",
"jXjXjXjXjXjXjXjXjXjX* O.,XfXqX!.H.s.V 5 jXjXjXjX# Q +X%X#X{.{ / Q K e d ~ %..X/ L @ jXjX; ' q.f.i.S.T.L. .& jXjXjXjXjXjXjXjXjXjX",
"jXjXjXjXjXjXjXjXjXjX  g Z.*X=XK.V.H w jXjXjXjXjXO E @X%X X[.XXQ s , , K / .X%.^ K , jXjXjXu N +.1.4.5.-.i o jXjXjXjXjXjXjXjXjXjX",
"jXjXjXjXjXjXjXjXjXjXjXjXX 1 > 1 6 = jXjXjXjXjXjX2 U [  X&X$XoXQ d 3 3 J Q %.%./ K , jXjXjXjX, 7 6 6 6 1 jXjXjXjXjXjXjXjXjXjXjXjX",
"jXjXjXjXjXjXjXjXjXjXjXjXjXjXjXjXjXjXjXjXjXjX< s R XX$X$XoX$.%./ J 3 e p e L ) $.L > jXjXjXjXjXjXjXjXjXjXjXjXjXjXjXjXjXjXjXjXjXjX",
"jXjXjXjXjXjXjXjXjXjXjXjXjXjXjXjXjXjXjXjXjXjX@ Q @X$X#X{.{ Q L J p p p e 0 p d K d , jXjXjXjXjXjXjXjXjXjXjXjXjXjXjXjXjXjXjXjXjXjX",
"jXjXjXjXjXjXjXjXjXjXjXjXjXjXjXjXjXjXjXjXjXjX# E +X%X#X[.XX/ d 3 0 p p e 0 p d K d , jXjXjXjXjXjXjXjXjXjXjXjXjXjXjXjXjXjXjXjXjXjX",
"jXjXjXjXjXjXjXjXjXjXjXjXjXjXjXjXjXjXjXjXjXjX, U [ |.&X$XoXW p 3 e p p e 0 L ) $.L > jXjXjXjXjXjXjXjXjXjXjXjXjXjXjXjXjXjXjXjXjXjX",
"jXjXjXjXjXjXjXjXjXjXjXjXjXjXjXjXjXjXjXjXjXjX, U [ }.OX] R , jXjX2 s e d Q %..X/ L < jXjXjXjXjXjXjXjXjXjXjXjXjXjXjXjXjXjXjXjXjXjX",
"jXjXjXjXjXjXjXjXjXjXjXjXjXjXjXjXjXjXjXjXjXjX@ L { { W s p @ jXjX2 s 0 K ) .XQ p jXjXjXjXjXjXjXjXjXjXjXjXjXjXjXjXjXjXjXjXjXjXjXjX",
"jXjXjXjXjXjXjXjXjXjXjXjXjXjXjXjXjXjXjXjXjXjX2 J Q R s e d 3 jXjX2 s e d W Q d # jXjXjXjXjXjXjXjXjXjXjXjXjXjXjXjXjXjXjXjXjXjXjXjX",
"jXjXjXjXjXjXjXjXjXjXjXjXjXjXjXjXjXjXjXjX3 d s e e e p s s > jXjX< s s e 3 p s 3 jXjXjXjXjXjXjXjXjXjXjXjXjXjXjXjXjXjXjXjXjXjXjXjX",
"jXjXjXjXjXjXjXjXjXjXjXjXjXjXjXjXjXjXjXjX3 s s e e p s 3 jXjXjXjX2 s s e e s s 2 jXjXjXjXjXjXjXjXjXjXjXjXjXjXjXjXjXjXjXjXjXjXjXjX",
"jXjXjXjXjXjXjXjXjXjXjXjXjXjXjXjXjXjXjXjX2 s s e e s s < jXjXjX3 e p p e 3 e s 2 jXjXjXjXjXjXjXjXjXjXjXjXjXjXjXjXjXjXjXjXjXjXjXjX",
"jXjXjXjXjXjXjXjXjXjXjXjXjXjXjXjXjXjXjXjX2 s s e e s s < jXjX3 J s e e s K L d < jXjXjXjXjXjXjXjXjXjXjXjXjXjXjXjXjXjXjXjXjXjXjXjX",
"jXjXjXjXjXjXjXjXjXjXjXjXjXjXjXjXjXjXjXjX3 s s e e s s < jXjX< s s 3 3 K ) $.L > jXjXjXjXjXjXjXjXjXjXjXjXjXjXjXjXjXjXjXjXjXjXjXjX",
"jXjXjXjXjXjXjXjXjXjXjXjXjXjXjXjXjXjX, s p e p p e s s < jXjX< s s 3 3 K ) $.R , jXjXjXjXjXjXjXjXjXjXjXjXjXjXjXjXjXjXjXjXjXjXjXjX",
"jXjXjXjXjXjXjXjXjXjXjXjXjXjXjXjXjXjX3 d s e p p e s J 3 jXjX, s s e e d L J jXjXjXjXjXjXjXjXjXjXjXjXjXjXjXjXjXjXjXjXjXjXjXjXjXjX",
"jXjXjXjXjXjXjXjXjXjXjXjXjXjXjXjXjXjX< s s e p p p e 3 jXjXjX, s s e e p p , jXjXjXjXjXjXjXjXjXjXjXjXjXjXjXjXjXjXjXjXjXjXjXjXjXjX",
"jXjXjXjXjXjXjXjXjXjXjXjXjXjXjXjXjXjX3 s s e e s s 2 jXjXjXjX2 s s e e s s 3 jXjXjXjXjXjXjXjXjXjXjXjXjXjXjXjXjXjXjXjXjXjXjXjXjXjX",
"jXjXjXjXjXjXjXjXjXjXjXjXjXjXjXjX, s s p p p e s s 2 jXjXjXjX2 s s p p s s 2 jXjXjXjXjXjXjXjXjXjXjXjXjXjXjXjXjXjXjXjXjXjXjXjXjXjX",
"jXjXjXjXjXjXjXjXjXjXjXjXjXjXjXjX3 d e < 3 3 0 s s 2 jXjXjXjX2 s e < < e s 3 jXjXjXjXjXjXjXjXjXjXjXjXjXjXjXjXjXjXjXjXjXjXjXjXjXjX",
"jXjXjXjXjXjXjXjXjXjXjXjXjXjXjXjX< d L R W L s p s 2 jXjXjXjX, d L R R L d < jXjXjXjXjXjXjXjXjXjXjXjXjXjXjXjXjXjXjXjXjXjXjXjXjXjX",
"jXjXjXjXjXjXjXjXjXjXjXjXjXjXjXjX, K ^ %.%.~ d e s 3 jXjXjXjX, K ^ %.%.^ K , jXjXjXjXjXjXjXjXjXjXjXjXjXjXjXjXjXjXjXjXjXjXjXjXjXjX",
"jXjXjXjXjXjXjXjXjXjXjXjXjXjXjXjX, s d s d s p s s 2 jXjXjXjX2 s d s d s p p s < jXjXjXjXjXjXjXjXjXjXjXjXjXjXjXjXjXjXjXjXjXjXjXjX",
"jXjXjXjXjXjXjXjXjXjXjXjXjXjX@ 2 e p e 3 3 0 e s s 2 jXjXjXjX2 s e 3 3 3 e s s p 2 @ jXjXjXjXjXjXjXjXjXjXjXjXjXjXjXjXjXjXjXjXjXjX",
"jXjXjXjXjXjXjXjXjXjXjXjXjXjX3 d s e p p p p e s s 2 jXjXjXjX2 s s p p p p e e s d 3 jXjXjXjXjXjXjXjXjXjXjXjXjXjXjXjXjXjXjXjXjXjX",
"jXjXjXjXjXjXjXjXjXjXjXjXjXjX2 s s e p p p p e s s 2 jXjXjXjX2 s s e p p p p e s s 2 jXjXjXjXjXjXjXjXjXjXjXjXjXjXjXjXjXjXjXjXjXjX"
};
