/* XPM */
static char *result[] = {
/* columns rows colors chars-per-pixel */
"50 50 196 2 ",
"   c #120D0F",
".  c #0E1921",
"X  c #26262B",
"o  c #392A25",
"O  c #2E2930",
"+  c #312E33",
"@  c #343234",
"#  c #383638",
"$  c #3B393A",
"%  c #4C1D19",
"&  c #452315",
"*  c #4A2520",
"=  c #512E22",
"-  c #583528",
";  c #423839",
":  c #5A3C32",
">  c #623824",
",  c #613D32",
"<  c #53423E",
"1  c #7B532D",
"2  c #674337",
"3  c #774D3F",
"4  c #785138",
"5  c #3E3F42",
"6  c #444344",
"7  c #434648",
"8  c #4A4748",
"9  c #4C4B4C",
"0  c #5F514F",
"q  c #4C4C52",
"w  c #504F50",
"e  c #4E5054",
"r  c #535254",
"t  c #585756",
"y  c #565759",
"u  c #5B5B5C",
"i  c #6A4C44",
"p  c #724D42",
"a  c #6E534C",
"s  c #735146",
"d  c #7B5245",
"f  c #74544B",
"g  c #7E5649",
"h  c #655E5D",
"j  c #765850",
"k  c #7B5B52",
"l  c #66605F",
"z  c #5F5F60",
"x  c #535E6D",
"c  c #635F61",
"v  c #5A6269",
"b  c #646263",
"n  c #6A6464",
"m  c #676768",
"M  c #6B6A6B",
"N  c #776967",
"B  c #736C6B",
"V  c #76706F",
"C  c #636C76",
"Z  c #6F6F71",
"A  c #706E71",
"S  c #6F7477",
"D  c #747375",
"F  c #7C7372",
"G  c #757679",
"H  c #777A7C",
"J  c #7C7B7C",
"K  c #825833",
"L  c #82593D",
"P  c #8C613F",
"I  c #845646",
"U  c #845B45",
"Y  c #895F45",
"T  c #80574A",
"R  c #845C4E",
"E  c #885E4B",
"W  c #855D51",
"Q  c #895F52",
"!  c #8D6347",
"~  c #8D634A",
"^  c #91664A",
"/  c #8B6154",
"(  c #8E6559",
")  c #86685A",
"_  c #916656",
"`  c #9B6D55",
"'  c #91675A",
"]  c #95695C",
"[  c #996C5E",
"{  c #8B6B63",
"}  c #9B6E60",
"|  c #9E7062",
" . c #98776F",
".. c #857C7B",
"X. c #857C7C",
"o. c #917670",
"O. c #A47363",
"+. c #AC7766",
"@. c #A0786D",
"#. c #98817D",
"$. c #667687",
"%. c #6D7C8B",
"&. c #7D7F82",
"*. c #76828A",
"=. c #758592",
"-. c #788693",
";. c #7D8B95",
":. c #7B8B9A",
">. c #7F919F",
",. c #7C94AA",
"<. c #7595BB",
"1. c #7B9BBE",
"2. c #7D9CC0",
"3. c #838284",
"4. c #898485",
"5. c #878688",
"6. c #8C8B8C",
"7. c #838F95",
"8. c #868E95",
"9. c #908F90",
"0. c #84929C",
"q. c #8D9498",
"w. c #89969D",
"e. c #939394",
"r. c #979698",
"t. c #999799",
"y. c #9B9B9B",
"u. c #899CA9",
"i. c #919DA6",
"p. c #A09EA3",
"a. c #8DA0AF",
"s. c #99A3A9",
"d. c #8DA2B5",
"f. c #82A0BF",
"g. c #93A5B3",
"h. c #97A9B2",
"j. c #9BACB5",
"k. c #9CAFB9",
"l. c #9EB0BA",
"z. c #A4A3A5",
"x. c #A7A5A9",
"c. c #A7A8AA",
"v. c #ACABAD",
"b. c #B2AFB2",
"n. c #A2B4BE",
"m. c #B9B7B9",
"M. c #819FC1",
"N. c #84A3C4",
"B. c #89A7C6",
"V. c #8CA9C6",
"C. c #86A5C9",
"Z. c #8DABCA",
"A. c #92AFCB",
"S. c #9CB4C5",
"D. c #95B2CD",
"F. c #9AB6CD",
"G. c #9DB9CE",
"H. c #95B3D2",
"J. c #99B6D2",
"K. c #9EBAD2",
"L. c #97B7DA",
"P. c #A9BAC3",
"I. c #A3BAC8",
"U. c #A2BED4",
"Y. c #A2BFD9",
"T. c #ACC2CC",
"R. c #A5C1D6",
"E. c #AAC4D6",
"W. c #AFC8D6",
"Q. c #A6C2DB",
"!. c #AAC6DA",
"~. c #AEC9DB",
"^. c #B1C9D4",
"/. c #B3CDDD",
"(. c #BACFDD",
"). c #B7D0DE",
"_. c #B9D2DE",
"`. c #B4CEE1",
"'. c #B6D1E2",
"]. c #BBD5E2",
"[. c #BFD8E4",
"{. c #B4D0E8",
"}. c #BAD5EA",
"|. c #BED9EA",
" X c #C2DBE6",
".X c #C4DDE9",
"XX c #C4DFF0",
"oX c #C7E0EB",
"OX c #CAE3ED",
"+X c #C6E1F2",
"@X c #CCE5F1",
"#X c #CFE8F3",
"$X c #D2EAF4",
"%X c #D7EFF8",
"&X c #D8F0F7",
"*X c #DCF3FA",
/* pixels */
"~.~.!.]. X].@X X]._.]. X]..X&XOX.X.X.X.X X[._.[./.).].OXOXOXOX!.Y././.E. X@XoX]. X*X%X XOX/.F.Z.'. X",
"].R.]. X X.XOXoXOX].OX$XOXOX$X.X.X.X.X XoX].OXOX].`..XOX.X.X.X_. XoX/.OX*X@X].XX@X$X X.XoX}.R.Z.]..X",
"oX_.). X[.OXoX.X X.XOX@XOX$XOX X X X X.X]..X.X.X[.Q.]..X.X.X].!. X). X*X@X`.'.`.].oX.X.XoX.X.X~.'.@X",
"oX X.X#X X X.X.XoX.X.X X.XOX.X`..X[._._.OX$X.X].U./.].]..X`.E. X]./.}..X].[.`.R./._.[.oXoX XoX'.}..X",
".X.XoX@X.X.X.X X].[.[.[.OX.XK.D.E.R.].@X$X X(.n.=.u.a.h.P.!.R.~.E.F.~.oX X].'././. X XOXoX.X X]. X}.",
".X.X XoXoX.X X[./.K.A.R.`.Q.Z.2.N. X%XOXT.x.*.8.q.D z.v.9.e i.,.B.F. X+X[..XOX.X[..X.X$XoX.X]./. XoX",
".X.XoX.X X[./.~.S.M.L.C.N.N.N.U.E./.P.7.z.v.Z 7 6 @ q 7 # D p.q x S.$X@X.X.X.X.XOXOXoXOXOX X~.Z.E.oX",
".X.X.X X'.~.I.V.H.{.XX'.~.E.A.~.].h.z.r.G w o 2 i 2 p p : 9 e 7 5.H w.OX X X].]./._. X[. X X[./.E.[.",
".X X.X[._._.^.).}.Q.R.R./.[.[./.:.X.e.8   * W O.} Q | O.] 2 : ; 6.b 5 =.R./. X X[.[..X_.[. X XOX}. X",
".XoX X.XOXoX$X$XOX~.E.J.F.R.E.0.y.A o - W Q ' } ' W O.O.' Q } d & # G x.P.).[..XoX.X).).OX#XOXoX[. X",
"oX.X.XOXoX XOXOXOX.X]. X]./.h.3.G < > } } / R ^ ] W O.O.' E O.' W W B M y h. X X XoX].[. X.XoXoX.X.X",
".X X X X XoXoXOXOXoX.X X_.'.&.v.n % W } } / E ^ ] W O.O.' Q +.( / ' : b 6.7.^. XoX.XoXoX.XoX X.XoXoX",
".X.X.X X.X.XoX X.X.X.X X_.n.e.M 8 2 W } } ( R ^ ] R O.O.' W O.( / ' a b D u h.[._. X X X.XoX X.X.X X",
" X XoX.X XoXoX X.X X X XT.e.x.y o _ Q O.O.Q _ ] ] R } | ] R } ( / [ 3 o r H C S./.W.]. XoX X.XoX X X",
"_. X X.X X XoXoX.X X].].:.6.J $ d [ Q | O.Q ' O.] W [ } ' W | ' W ] R a V H e a.R.Y.|.@X XoX.X X_.[.",
" X X X_._.[._. X X.X].K.%.b.e.6 T } W [ | Q ' | ] R | / E W } ' / R U d ..9.b j.[.OX}. XoX.X X X.X_.",
"&X$X@XoX X[.OX X[.)._.~.>.y.J @ T } W ] [ / ' | ] W | R P Q } ' R U L s N 5.r h.#X#X XoX.X'.~.'.[._.",
"#XoX[./.J.J.oXOXoXOX%XoXw.q.#.6 T } W } } Q ] O.] R } R P W } ' W K K j F 6.z h._.oXoX[.'./.'.]./.[.",
"OXoX'.B.2.C.J.@XOXOX[.].;.6.J @ T } W ] [ / [ O.] W } E ! W O.( / ) ) N #.*.t l.[.oX[.~.R.[. X.X.X.X",
"oX[.'.E.V.2.2.'.OX[./.T.>.c.9.9 I } W } } Q [ O.] Q } E L W } ( k F D m S H m n. X|.[.[.E.K./.[.oX X",
"[.OXoX[.).E.W.].].]._.U.%.y.5.O g ' R ] [ / [ +.] W } E P W O.( j h u r r Z y k. XoXoXOX X'.).[.oX X",
"OXOXOX XoX XoX@X[.[.oX/.;.e.J 7 d E L [ } / [ O.] R | R ^ Q } ( W ' k i M 3.b k. X X X X.X X.X X.X X",
".X X[.[.OXoXOX$XOXoX_.oXs.m.z.8 g U K [ ] Q ] O.] W | Q / R O.( ( ] Q f 4.z.Z k.).).'. X X.XoXoXoX X",
"_.oX.X XoX[.[.[.[.].).].*.H b . T E U [ ` ~ ' | ] W } } ' R | ( Q ] W p h D 5 u.)./.~.[..X.X X[._.^.",
").[._._..X_._.[..X`.A.!.:.z 5.B 3 } R ] ` Q ] | ] W } O.' W } ' Q | Q f 4.x.3.d.Q.J.~.oXoX X_.)._.].",
".XoX X.XOX.X'.Q.`.F.C.K.$.5.y.w I } Q [ [ Q ' | ] W } | ' W } ( ~ O.Q p ..y.Z d.Q.'. XoX X_._.]. X X",
"[.]..XoX[.[.].#X@X!.H.A.$.9.D X T ] Q ] [ / ' | ] W } } ] R O.( / | / f h M 9 k.Q.'.].].[.oX).~./.].",
").]. XOXOX~.R. X/.~.!.H.-.x.t.u I } Q [ } Q ' | ] Q } O.' W } ' / | Q j F X.M n.Z.F.R.R./._.].J.K.|.",
"F.W. XoX/.F.!.}.!.H.H.U.0.9.M $ g @.o.{ { j Q | ] W | +.' R } ( / } W s B Z 9 h.U.Z.R.]././. X'.H.H.",
"F.).[.}.].]. X!.B.F.J.A.%.9.M 5 g @.#. .{ k { | ] W } +.' R | ( / ] / s B J y a.F.B.B.~.].'.~.].F.N.",
"}.@X}.@X#X.X`.~.~. XY.B.-.x.&.+ g } {  .} ) } } } R | +.' R | ' / [ W f ..6.r g.~.R.J.~. X'.Z.~.K.L.",
"Q.K.Z.L.H.A.D. X@XXX!.Y.7.t.&.+ g } W { Q k ' } } R | +.' W } ( / [ W d B J r a.].~.Q.G.~.oX|.L.C.Q.",
").~.Z.1.N.N.B.D.'..X].].u.b.p.t I } Q ] ' Q _ | } R | +.' Q ] I / [ E s F y.D u.~.`.K.Z.U. X$XQ.R.).",
"[. X].E.E.R.Z.N.D.J.E.!.;.c.6.X E O.R } } Q ] } ] R | +._ R _ 4 / ] W s F e.r j.].'./.).[.`.`.}.oXoX",
"[.[.).'././.U.F.G.F.U.I.%.3.r . Q O.W ] ] Q ] | ] R } +._ Q _ 1 Q ] Q p l M 6 h..X X XoXOXOX].`. X|.",
"oXoXoX#XOX]./.'.[.OX}. Xi.J M u I O.W _ E R _ | } Q } } ] Q _ 1 / } Q j ..y.H P.[. X.X X X.XE.A.]. X",
"[._.}.].].].oX%X$X@X[.oXw.H 9.u I O.W _ Y Y Q _ ' R } } ' Q ' 3 _ ' E f X.x.J P. X_.[. X[.).F.G.[. X",
"~./.E.J.Q.~.oX[.'.'.].oX7.5.l   E | W _ Y E R ^ ] R } | ' Q } W ( } { N F D O u.).].~.G./.].].OX#X X",
"!.K.Q.}. X'.~.R.Z.2.A.].w.r.J w d [ W _ Y E _ ] ] R } } ' R | ' W ..J b G 4.M d.K.D.N.N.R.[.@X@X!./.",
"1.Z.L.~..X[.!.F.U.R.G.^.s.m.c.V d } W _ Y Y ] | } R } } ] R | ( j c u u 3.e.D d.E.}.Z.N./.oX X/.K.H.",
"U.Z.<.G._.].).).oX#XoX!.;.y.z.z d } E ' Y E ] | ] W } O.( W | ( W ) a 0 b M z k.oX}.N.K.#X$X#X[.`.A.",
"].B.V./.@XOX X#X#X#X'.U.;.r.D @ T ] W _ E E ' | ] W } +.' R O._ W [ / p l m 7 h.].Q.E.oXOXOX X X X'.",
"].|.oX%X.XQ.'.[._.oX_.~.7.e.V $ d ^ E ] ' Q ] | ] W O.+.( W | ( Q ] E f V H y j._.[.oX X X_. XoX[.'.",
".X@X+X].E.~.~./.E.R.I.U.;.v.s.l 2 ! Q } [ Q ' | ] W } +.( W | ( W E U f ..y.V n.oX X XoX X XOXE.Z.~.",
".X X[.]. X X]. X_._.Q.J.=.z.#.@ d ] W ] } Q ] | ] R } +.' W | ( W E U s F 3.w j..X.X.X.X_.E.R.H.~. X",
"@XoX.XoXoXOXoX@XoX$X@X).$.5.u X d } W } } Q ' | } W } O.' W | ( / ' W s n m 6 l..X X.X XR.D./.#X@XoX",
"oX.X X.X X.X.XoX X X_._.;.r.S 9 > ' ( } } ( ] } Q f ] O.] W O.' ) / d i B 3.b l. X X'.G.Z.H.U.oXOX X",
".X.X.X X.X.X.X X.X[._._.=.y.m $ & , f Q Q d W p - = , Q R d ( R p : = - V 6.r h.OX_.N.<.C.1.J.oX X].",
"[. X`.`.E./.]..X].[. X_.u.v x v l n b M M n B m b h b m m N m b c h h b H S C T.oX^.f.F.U.2.Z.J.'.'.",
"'.~.U./.U.D.~.}.U.E._.[.'.Q.}.OX@XOX.XoX X XoX.X].E. X X[.].).E. XOX!.K./._.].@X X].oX$X$X'.2.D. X[."
};
