/* XPM */
static const char *ZmxhZ3N0b25lX2Zsb29yX3ByZXZpZXdfMCslMjgxJTI5[] = {
/* columns rows colors chars-per-pixel */
"64 64 62 1 ",
"  c #3C2E1C",
". c #3E311E",
"X c #392F22",
"o c #3E3122",
"O c #42331E",
"+ c #48371F",
"@ c #47381F",
"# c #4D3A1E",
"$ c #443522",
"% c #483721",
"& c #473825",
"* c #4C3B24",
"= c #433729",
"- c #46392A",
"; c #4B3D2A",
": c #513E25",
"> c #503F29",
", c #4C3F30",
"< c #4E402E",
"1 c #534026",
"2 c #564024",
"3 c #584325",
"4 c #594426",
"5 c #524129",
"6 c #54422B",
"7 c #574429",
"8 c #52422E",
"9 c #55432C",
"0 c #56452E",
"q c #5B4628",
"w c #59452B",
"e c #58452D",
"r c #5B472C",
"t c #5C482F",
"y c #5D482F",
"u c #4E4132",
"i c #514230",
"p c #534431",
"a c #524433",
"s c #544530",
"d c #554534",
"f c #544636",
"g c #584731",
"h c #574836",
"j c #5B4933",
"k c #5D4931",
"l c #5F4C33",
"z c #594937",
"x c #5D4B34",
"c c #5D4C37",
"v c #554738",
"b c #544739",
"n c #574838",
"m c #56493A",
"M c #594A3A",
"N c #5A4B3A",
"B c #5A4C3C",
"V c #5D4E3E",
"C c #604D35",
"Z c #604D36",
"A c #614F39",
"S c #66533D",
/* pixels */
"**::*::*8e05**;-;13::****::*:ww$.$$.O%**+*****& ;*11:::*;NNzdzi ",
"y;*511*;095**$-Nd;12:17e6:157w*::OO$$$**%*****.6e*:1:1*55spsNp$5",
"kk;*5s8605;:*-ndNB;12we11wwyg**:::O$*********.50:6*::*6766sNpO5e",
"kkx*&656:***=pdiNVv;7yw222ww*::::60$;;***%#$.:75160%*616666;$:66",
"kkc;O*1::1*O;psdNdd-$w4144w%*9556565&***#*$;8:e01:5* *1::1*;8:e0",
"kci8g**6:*O::;idsd;*:O1411*905*51:555$;*+$*lZ>::::**# *::*5cZ>::",
"ks08N8$;&O*##:*dd;;*1:Oew*0065195:56e5$**;yeee;*5*+*#* 5:>yeee;*",
"5:60>05  :*:1:#;;**::66O-x66*::065:1006.*kke7008&**:*** ;Zke7008",
"85:5*e* $***:::*-5*55:*.*006::506::606:O$eZj09ss*##**;5O$eZj09ss",
"p56::9$**$*1*#;-;;**6*O:1*>11566::556*O*>$Az9jsgs**#:5O*>$Az9jsg",
"8880:O>***O@#$--;u,9*O::66**156:1:11>$*:6;*80sg905*##$*:5;*80sg6",
"88s8$:6*>0*.$-&;;;;&O61:560*>6:1::6*$::::8*$;g055:6*O::::8*$;g05",
"8s;$*66zx05*$;;;-=oO*661:::;$>e*:65O*::51:;--55:66:O*::51*;--51:",
"i;$*5;5e6:;0;$--==$11*66::565$8:6>O::*:6:5duu-:16*O::*:6:5duu-::",
"8-:5;>*61*5ej>$--O6w:1*66*1101$5*O*:##*51;dipd-5*O*:##*51;dipd;5",
"-z;**;8;;656jg5 &6:1:::;;5161::  :::*##*;phNiss-.::*###*;phhiis-",
"$;5*>88;;61006* &1::::1*>016::*;;*11::#+;NNddzp$O*21:::*;NNhdzi$",
":O*5568u;;0165$58$*:*1*6je61:*;Zk**1::*11sssNd&*:O*1::*55sspNs$*",
"::O*6*-;;-;7:O5j5:%*:*557696:;Skyk;::*6766sNi&98;;$*:*6766sNi=**",
":69$&;&&----$:eg>:1O%:*5667**kkkkkx**616656;=6665*5$%616655;oO&-",
"6115$-u====$*:6:551-o*1::::o-ykkckc;O*5::5*=;660;*1*$:1::1*O$$$*",
"::566$---=&6:*::50*;u=*:1:o&*;kyyci8g$*::*$;;*69*:*16 *::*$*&$*%",
"1:16e6O&-$6660;5:;;-<u=::=-&*&;kks08c8$9:$;;;;;85*:*%$$8:O*&&**$",
"6511e7e.$6656x9*=u;;;;;oo;;&--&;8:60>0<$$;<;;;--***$*66& %%&$***",
"6::606:.O51:1Ai$=;;;;--Xo-,**-;-86:5*e; =-;;u<uu-.*5:95*=%$.O%**",
"::556*$6:$*61g<***;*;-o&-=--&-;ss56::9=--==;;;;N--1:55*jk&O$$$**",
"1::6>$9::6$515;$***-&o-;-;=&*;p88887:&-**-=--<;=ui85:*geek-$****",
"::6>$::*::6$*95****&X--;--;=-ss888s8=;;----=-p=;<id;;xeeekc&;;**",
":65$***:::69$5155>*$-----;;;-sh88s;&--;;*--*$=-duu,;kkjeeejg-***",
"6>&:1:1616065$;5:5$:6--;;;udi;<8i;$:6--**-*66=uuuuixkejkeejjg*;*",
"*$51::1105>*:. 1:%::::-;;udpuu-;8**11:*-;-:66>$dv<ZAjjjjeeeeje**",
".591#::60**:OO*.O:*:::5-;dppipi=&6::655;-::6::5$ucjzsjjjkjege0e$",
"O555:6:e*:1*O:*O$*:::16*;iippdu,-556155>>650160--czpgzgjkjejee9&",
"***55158@*O*:*$::$*:::>5:8psdu;dd;:6655w160105;ddu0jscggxxkee6;0",
"*:&O**e5**O:*$6517**1>9:*18Ni;ddVn;566ww7151:;dsVn;exzeejjck0;91",
"**5=*1605:#+O*::***%;75:::5<-hddBnd;*wwyyww>-nddBnd;s99ejjkj;6:5",
"**98.:1**:O *1*%516;$56::6*;issshnp;O1wwww1;ipsshvp;$se90e9-5::1",
"O*;*&$****O::*%57655>O***$<ze8ddhnu05$eww18ze8ddhnu05$5gss*5:55:",
"***ii;O**O*::#*605556:O<9%j00yidN<88:*$ww*j0ekpdN<85:*Ozp&6665**",
"8*55>**  :::#:6*;56089:O;kjg9eep;9g;*::O*kjg9eep;9j;*::$-k695*&*",
"59>*::*.$*::*::*5e06**; *jex9eZ<&e8****o-jex9eZ8*e8****O*069;*$*",
"505*69O:1%*111*;095**$O::;eZ8ki-;;5***o---eZ9ki-;;5**$$0:$575;*9",
":551;O::17;*5s8605;:*O:1:58kx<&;;;;5*=;**--xx<*;;;;5*$*:5:*06>*6",
"::6>$61:16e*&955:**$.:6:*>0;;-&;;;;;$;;-----;-&;;;;;$5*>901$*1>:",
"*55$*661:::;.*5::5*O*5:::6z;o---;;&$;-;;**-&o---;;&=;905;55$.***",
"55%11*66::506$:6:*$16**::0---o--;-$:5--**-*66$-;;-=;;-j0**$#* **",
"*O6w:1*66*1171$;**56:1;96;=u<-o--$::1:*-;*:665.&-=;;;-***$%**+O;",
"*1:1:::;;5:61:: o5::515*----;-&X$6::561;-::6::5o=u;;;--&$*:*::#O",
"*1:::11*;0:61:*O$****5*;<;----&==566:65>>660:69$-;;;-;;***#:###-",
":**:*1:6g0611*O*:$***5;zxi=-;--dd-:6655w1601e5*9s;-;---55*:11*-d",
":5**:*560696:&56:5***8ssss;;&;NdNN;:66ww7151:;s0izu;--566:*1:;ds",
"*1s**:*1667*$56565:$;zs58ski;NzsdzN-*wweeww>*jj9scc;$:556:6*&nds",
":6s;o*:::1*$*551::0*$zc900e;sssssssz;1wwww6$;jg8jjj8&*1::6>;issd",
":0---o*::**0;;5165;;*$gck0;d98ssszscN;www1***<z<;e*5h *::*<ze8dd",
"5;-u<-o:5*5685*57;*;**$jj-ssis8ssssssi;w7&;:**i<;;*:s8$*:*j00esd",
"----;--o&6::55*;;;;;*** -zs8i98ss0ssssi=*55:***&;5*:6ej$*kjg9eep",
"<;---;& $:1:::>8s6::::*O=i889dss8sssss8==:06:****::::6s;-gex9eZ8",
"zi=-;-$::**:1:0kk01:1*$::$is8s8ssss9si;dd=*66*&;6;*:1*;dd;eZ9k8-",
"sd;;&$:::5**50kykk0*O$::::*ss88szsss8,hsNN;:58;$*%*:*-dsVnikx;-;",
"80x<.:6:*1s;5kkykeZ;O5:::66-i88szss8,NzsdzN-*55***1;-nddVnd;;-&;",
"00g**5::*6z;=ekeeyy**0556155&pd8ss<;dssssssz;*;***5;ipsdnvi;o---",
"x0*16*::*0---$ekee*605*51:565&dzsi;ds8ssszscN-;*9;;xe8dddnu06$-;",
"j*16:1;66;-u;-=ee;0065195:56e1$vi-ssss8ssss8sp;59;j00ypdN<85:*O-",
"*5::555*----;-&o;k65::10651:e06o=zs8898ss8s9ssi=*jjg9eei;9z;*::$"
};
