/* XPM */
static char *result[] = {
/* columns rows colors chars-per-pixel */
"50 50 119 2 ",
"   c #020202",
".  c gray5",
"X  c #0E0F10",
"o  c #121212",
"O  c #1B1B1B",
"+  c #171D23",
"@  c #1B1F20",
"#  c #1F252B",
"$  c #242424",
"%  c #21262B",
"&  c #2A2A2A",
"*  c #262D32",
"=  c #292E31",
"-  c #2D3133",
";  c #2D363E",
":  c #333333",
">  c #353B3E",
",  c #3D3D3D",
"<  c #373E41",
"1  c #3A3F42",
"2  c #3C4145",
"3  c #424242",
"4  c #434749",
"5  c #4B4B4B",
"6  c #434B51",
"7  c #555555",
"8  c #50575B",
"9  c #5B5B5B",
"0  c #445669",
"q  c #47586C",
"w  c #495A6E",
"e  c #525E69",
"r  c #4E5E70",
"t  c #576165",
"y  c #55636B",
"u  c #59656A",
"i  c #5D696E",
"p  c #586775",
"a  c #596975",
"s  c #5D6C79",
"d  c #606B6F",
"f  c #616D72",
"g  c #606F7A",
"h  c #647176",
"j  c #63727C",
"k  c #69777E",
"l  c #607180",
"z  c #6D7B82",
"x  c #707E84",
"c  c #748692",
"v  c #7A8A93",
"b  c #7594BB",
"n  c #7B9BBE",
"m  c #7E9DC2",
"M  c #819096",
"N  c #8095A4",
"B  c #8C9DA6",
"V  c #849CB0",
"C  c #819FBF",
"Z  c #8FA1AA",
"A  c #92A5AD",
"S  c #93A6B2",
"D  c #96AAB3",
"F  c #99ACB4",
"G  c #98AEB9",
"H  c #9DB2BD",
"J  c #819FC1",
"K  c #84A3C4",
"L  c #89A6C5",
"P  c #8CA9C6",
"I  c #85A5CB",
"U  c #8DABCB",
"Y  c #90ADC7",
"T  c #92AFCA",
"R  c #95B2CE",
"E  c #99B5CD",
"W  c #9DB9CE",
"Q  c #95B3D3",
"!  c #99B6D1",
"~  c #9EBAD2",
"^  c #91B2D8",
"/  c #9BBADA",
"(  c #A4BAC4",
")  c #A2BCCF",
"_  c #A2BED4",
"`  c #A2BFDA",
"'  c #A6C1D6",
"]  c #AAC4D5",
"[  c #AFC8D7",
"{  c #A6C2DB",
"}  c #AAC6DA",
"|  c #AEC9DB",
" . c #B1C7D1",
".. c #B4CBD5",
"X. c #B3CDDD",
"o. c #BACFDD",
"O. c #B6D0DE",
"+. c #B9D3DE",
"@. c #AAC5E0",
"#. c #B4CEE1",
"$. c #B6D1E2",
"%. c #BBD5E2",
"&. c #BFD8E5",
"*. c #B4D0E8",
"=. c #BBD6EA",
"-. c #BED9EA",
";. c #C2DBE6",
":. c #C4DDE9",
">. c #C4DFF1",
",. c #C7E0EB",
"<. c #CAE2ED",
"1. c #C7E2F1",
"2. c #CDE6F1",
"3. c #CFE8F3",
"4. c #D3EBF4",
"5. c #D6EFF9",
"6. c #D9F0F7",
"7. c #D7F0F8",
"8. c #DBF2FA",
/* pixels */
"| | } %.;.%.2.;.%.+.;.:.+.:.8.<.:.:.:.:.;.;.%.;.O.X.%.<.<.,.,.} ` X...} -.2.:.%.;.8.5.;.,.X.R T $.:.",
"%.' %.;.;.:.<.,.,.+.,.4.<.<.4.:.:.:.:.;.:.%.,.:.%.#.:.2.:.:.:.+.;.<.X.2.8.2.%.:.3.4.;.:.:.-.' P *.:.",
",.+.O.;.-.,.,.:.;.:.<.<.,.4.<.;.:.:.;.:.&.:.,.<.-.} &.:.:.,.&.} :.X.;.8.2.O.%.#.&.,.:.:.:.:.:.} %.2.",
",.;.:.3.;.:.:.:.,.,.:.;.:.2.:.X.;.-.O.+.<.4.,.$._ #.%.%.:.$.} ;.$.#.=.:.=.%.X.{ X.+.;.:.,.:.,.%.*.,.",
":.:.,.<.:.:.,.;.%.;.%.;.,.:._ R ] ) +.3.4.,.:.$.L W ..X.%.X._ ..] E | :.;.;.#.X.X.%.:.<.:.:.;.%.&.:.",
":.:.:.,.:.:.:.%.X.W T ' #.} P m K :.5.3.,.;.&.;.] ' +.;.%.X.' R L E :.,.&.:.,.:.&.:.:.4.,.:.-.X.;.,.",
":.:.,.:.;.-.X...R K Q I K K K ~ } X.-.:.,.;._ E O.-.-.-.-.{ L L E | 4.3.:.:.:.:.,.,.,.<.<.;.} P ' ,.",
":.:.:.:.X.[ W P Q *.1.$.} } R | ;.O.| | ;.,.[ T X.+.$.*.@.K m U R *.4.<.;.;.%.%.X.&.;.&.:.:.%.X.] -.",
":.;.:.+.+.+...X.=.} _ { O.&.-.O.| X.O.-.} _ [ X.%.&.+.| Y T W R ` %.$.#.} X.;.;.%.;.:.%.%.:.:.<.%.&.",
":.,.;.,.<.,.3.6.,.| ' E R ' ] O._ ' O.:.| n ! -.2.,.:.&.O.+.] ' X.#.;.:.%.$.;.:.:.:.X.O.<.2.<.<.-.:.",
":.:.:.<.,.;.<.<.,.:.%.k t t s X.:.#._ ~ } _ ~ _ O.&.,.<.4.-./ $.&.:.,.:.:.<.:.o.h i ;.%.:.:.:.:.:.:.",
":.:.;.:.;.,.,.<.<.,.:.- , > : Z #.U R X.&.O.' ! ! %.,.,.,.{ U X.-.;.:.:.:.:.:.B 3 & ,.:.:.:.:.:.:.:.",
":.:.;.;.,.;.,.;.,.:.:.3 9 7 7 * q w r g k x k g a j z z z g j s w w p g k x x , 7 , :.;.:.:.:.:.,.;.",
";.;.,.:.,.,.;.,.,.H ,.4 9 7 7 X @ @ @ $ @ X X X o o X X o o o o o o o o o X o o 7 , %.;.:.:.:.,.;.;.",
"+.;.;.:.;.;.,.,.;.8 v : 9 7 7 & , 3 3 3 3 : O & & & & & & & & & & & & & & & - O 7 1 -.<.;.:.;.;.+.%.",
";.;.;.+.+.%.+.;.;., $ : 9 7 7 , : 3 , 3 , , O $ & & & & & & & & & $ & & & & & o 7 , &.;.:.:.;.;.;.+.",
"6.4.3.:.:.;.:.:.;.5 3 7 7 5 7 7 $ : , , , , , O $ & & & & & & & & & & & & & & O 7 , ;.:.:.%.| %.%.+.",
"4.:.;.X.! ! :.<.;.M   - : : : : , . $ $ & $ $ O o O O O O O O O O O O O O O O o 7 , :.;.#.X.#.%.O.&.",
":.:.$.P m J ! 2.2.;.= O $ O O O $ & $ $ & $ $ $ $ $ $ & & $ & $ $ & & $ $ $ X & 7 , ;..._ &.;.;.:.:.",
":.;.%.` U J J $.:.;.& 5 7 7 7 7 7 9 9 9 9 9 9 9 9 9 9 9 9 9 9 9 9 9 9 9 9 5 , 7 7 , &.&.{ _ #.&.:.:.",
";.<.:.:.o. .} %.;.%.= O $ $ $ $ $ $ $ $ & $ $ & $ $ $ $ $ $ $ $ & $ $ $ $ @ , 9 7 1 :.:.;.$.%.&.:.:.",
"1.<.<.:.:.:.:.3.;.%.= 1 7 7 7 7 7 7 7 7 7 7 7 7 7 7 7 7 7 7 7 7 7 7 7 7 7 7 7 7 9 3 ;.;.:.:.:.;.:.:.",
":.;.;.;.<.:.<.4.2.:.= 3 9 7 9 7 7 7 7 7 7 7 9 7 9 7 9 7 7 9 9 7 9 7 7 9 7 7 7 7 7 , %.;.;.;.<.:.:.;.",
"o.:.;.;.:.%.&.;.;.$.= 3 7 7 7 7 7 7 7 7 7 7 7 7 9 7 7 7 7 7 7 7 7 7 7 7 7 7 7 7 9 , | &.:.:.;.;.+.[ ",
"o.;.%.+.:.+.%.&.<.#.% 3 7 7 9 7 7 7 7 7 7 7 7 7 5 3 3 3 3 , 3 3 , 3 3 3 , 3 , 3 4 : | ,.,.:.%.+.+.+.",
":.:.:.:.,.:.%.` #.R + 3 7 9 7 7 9 7 7 5 3 3 4 4 $ . . o o o o o o o o o o o o o o 6 :.:.;.+.+.%.;.:.",
"%.%.:.:.;.;.$.3.2.} V 1 9 7 7 7 7 7 9 & O o O O .   - Z Z A F A A D A Z A A A S N H %.%.+.,.O.} X.=.",
"%.%.;.:.<.| _ :.X.| { 1 5 O O @ @ O 5 1 v   B A ( & 1 +.4.8.:.:.:.:.;.+.4.4.6.:.T ! { ' X.%.$.E ~ -.",
"E } ;.:.X.E } -.{ Q ! 2 3 . O O O X 3 5 (   o.2.3.< 1 3.4.:.:.:.:.,.;.:.5.2.:.&._ T { %.X.X.-.%.Q R ",
"E X.-.;.+.%.;.} Y E ! 1 3 o & & & o , 4 G    .:.4.< 1 4.4.<.:.;.:.:.:.:.,.:.$.} ! P K [ +.O.| %.W C ",
"=.2.=.1.3.>.X.| | %.s & 3 o & & & o , 4 ) ; > +.3.< , 6.:.;.;.;.;...X.$.%.=.%.#...' ~ | -.+.U } _ / ",
"} ~ T / T T T ;.2.>.% $ 3 o & & & O , 5 ] V l G e O A :.:.:.;.;.X.%.<.} R } | X.=.| { ~ X.,.-./ I / ",
"#.} P m K K L R *.D 2 3 3 o & X & O , : h u y 2   u &.:.,.;.;.+.,.6.o._ ..} { ! | #.~ P ` ;.3.{ ' O.",
";.;.%.} } ' T J Q e 7 3 $ O &   $ o , $       $ t  .,.:.+.&.;.+.2.:...%.%.;.:.:.%.%.X.O.&.$.#.-.:.:.",
";.&.X.+.X.X._ E W y 7 O o $ $ o & O , : u u d c :.:.:.;.,.2.:.:.<.,.-.;.;.;.;.;.,.:.:.:.<.<.%.#.;.;.",
":.:.:.4.<.&...#.-.k 5 $ : & & & & O , 4 +.<.;.;.:.:.:.,.<.:.;.<.<.<.<.:.,.,.+.:.;.;.;.:.:.:.] T +.;.",
"-.+.-.$.%.=.<.6.4.x 7 @ & & & & & O , 2 O.&.:.<.,.:.,.:.:.;.;.:.<.4.,.:.;.+.+.,.,.+.+.;.%.O.W ~ -.:.",
"X...] ~ _ | :.;.o.f 7 O & & & & & $ 5 2 +.,.<.,.:.:.;.;.:.:.:.:.:.:.:.;.+.,.%.O.+.%.| W ..$.-.,.2.:.",
"} ~ { -.;.%.} _ P 0 5 O & & & & & @ 5 9 ;.;.&.O.+.%.;.:.,.:.;.:.:.:.:.+.;.2.+.] ~ Q K K ' =.2.2.| X.",
"n U ^ @.:.-.} E _ a , O $ $ $ $ $ O & B ;.:.-.&.+.:.6.:.:.;.;.%.+.:.;.;.,.:.X.' | -.R n O.,.:.[ ~ Q ",
"` U b W +.%.+.X.,.t : X @ O @ O O o $ k :.,.:.:.&.7.,.| %.:.+.X.:.;.,.:.:.,.:.%.,.=.L W 3.4.2.&.#.U ",
"$.P P X.2.1.;.3.4.                    # ..) } $.+.:.;.%.&...' 5.<.2.:.+.$.O.$.;.&.} ] ;.,.<.:.:.;.#.",
"&.-.:.5.>.{ #.;.%.:.%.| %.%.] _ } X.:.X._ W ' ..;.,.,.X.{ L Q 3.<.,.:.&.;.;.;.+.$.-.,.;.;.+.;.,.&.O.",
":.2.<.%.[ } ..X.] _ _ _ _ ] ! ! ! -.` Q ;.:.:.| &.:.,.:.Q I I ' :.:.:.,.:.:.;.,.,.,.:.,.;.;.,.} T | ",
":.;.%.%.:.;.%.:.+.o.@.Q _ ) Y Y Q J b R ;.,.:.%.:.,.4.2.} R ~ } ;.:.:.+.;.,.<.,.:.:.:.:.+.] _ Q | ;.",
"<.<.:.<.,.:.:.2.:.5.2.| P _  .} T { -.} } ,.,.:.:.:.;.-.+.+.:.:.;.:.:.:.2.<.,.;.,.:.:.:.' R X.4.<.,.",
":.:.:.:.:.:.:.:.:.;.;.o._ T ! @.=.3.,.%.X.;.;.:.:.:.,.,.:.,.:.:.:.;.:.:.,.<.;.+.;.,.$.! U Q _ ,.,.:.",
":.:.:.;.:.:.:.;.:.%.+.%.! ! I / -.$.$.%.;.;.:.<.:.;.:.:.:.:.:.:.:.:.:.:.,.,.+.;.<.+.L b K n ! :.-.%.",
"%.:.#.X.} X.+.:.%.%.:.+.' ' / #.;.1.;.:.:.;.,.:.=.+.:.:.;.:.;.X.+.+.%.:.&.+.+.<.,...L E _ n U ! $.$.",
"%.} ` .._ R | ;._ } X.;.%._ -.<.2.:.:.:.:.:.,.:.%.] ;.%.;.%.O.] :.<.[ ) X.X.+.4.;.%.,.4.5.$.n T :.;."
};