/* XPM */
static const char *YWNoaWV2ZW1lbnRzX3ByZXZpZXdfMCslMjgxJTI5[] = {
/* columns rows colors chars-per-pixel */
"64 64 142 2 ",
"   c #06070D",
".  c #0C0C0F",
"X  c #0E0E10",
"o  c #100F11",
"O  c #0F1011",
"+  c #151412",
"@  c #181714",
"#  c #1C1A14",
"$  c #1F1D18",
"%  c #261F15",
"&  c #252116",
"*  c #292417",
"=  c #2D2817",
"-  c #272418",
";  c #2B2619",
":  c #2E291B",
">  c #332C1B",
",  c #37311C",
"<  c #3C331C",
"1  c #353221",
"2  c #3A3622",
"3  c #3F3A24",
"4  c #41371C",
"5  c #453A1D",
"6  c #483E1E",
"7  c #423C24",
"8  c #4B3E21",
"9  c #4D411D",
"0  c #52451F",
"q  c #54481F",
"w  c #464127",
"e  c #4D4123",
"r  c #474228",
"t  c #4B4428",
"y  c #524521",
"u  c #574921",
"i  c #5B4C23",
"p  c #534B2B",
"a  c #594C29",
"s  c #5F5024",
"d  c #5B532F",
"f  c #5F5732",
"g  c #624F26",
"h  c #655326",
"j  c #685626",
"k  c #665328",
"l  c #6A5629",
"z  c #6F5B2C",
"x  c #715D2D",
"c  c #655C34",
"v  c #695F34",
"b  c #75612F",
"n  c #7A642F",
"m  c #6D6336",
"M  c #756331",
"N  c #796633",
"B  c #776934",
"V  c #7B6935",
"C  c #7F6E38",
"Z  c #7E723D",
"A  c #806A33",
"S  c #80713A",
"D  c #80723B",
"F  c #87753B",
"G  c #87753C",
"H  c #84743C",
"J  c #88753B",
"K  c #88753B",
"L  c #86783E",
"P  c #8B793D",
"I  c #8A793E",
"U  c #8B7A3E",
"Y  c #8B7B3E",
"T  c #8D7B3E",
"R  c #817740",
"E  c #827740",
"W  c #827740",
"Q  c #857941",
"!  c #867A41",
"~  c #8B7D42",
"^  c #907F41",
"/  c #907E41",
"(  c #8E8041",
")  c #8F8041",
"_  c #8F8143",
"`  c #928042",
"'  c #938142",
"]  c #938243",
"[  c #948142",
"{  c #948242",
"}  c #948243",
"|  c #978645",
" . c #978746",
".. c #978646",
"X. c #938343",
"o. c #988645",
"O. c #988746",
"+. c #998746",
"@. c #988646",
"#. c #998846",
"$. c #988846",
"%. c #9B8947",
"&. c #9A8947",
"*. c #9A8B48",
"=. c #9F8F4B",
"-. c #9D8E4A",
";. c #A08E4A",
":. c #A5954E",
">. c #A5964E",
",. c #A6964E",
"<. c #A7964F",
"1. c #A7974F",
"2. c #A5954E",
"3. c #A8974F",
"4. c #A8984F",
"5. c #A89750",
"6. c #A89850",
"7. c #A99950",
"8. c #AA9950",
"9. c #AA9A50",
"0. c #AA9A51",
"q. c #AB9B51",
"w. c #AB9B52",
"e. c #AC9C52",
"r. c #AD9C52",
"t. c #AD9D52",
"y. c #AD9D53",
"u. c #AE9D53",
"i. c #AE9E53",
"p. c #AF9E53",
"a. c #AF9F53",
"s. c #AF9F54",
"d. c #AC9C52",
"f. c #AFA054",
"g. c #B0A054",
"h. c #B0A055",
"j. c #B2A255",
"k. c #B4A456",
"l. c #B2A355",
"z. c #B7A758",
"x. c None",
"c. c black",
/* pixels */
"x.x.x.x.x.x.x.x.x.x.x.x.x.x.x.x.x.x.x.x.x.# # # # # # # # # # # # # # # # # # # # # # x.x.x.x.x.x.x.x.x.x.x.x.x.x.x.x.x.x.x.x.x.",
"x.x.x.x.x.x.x.x.x.x.x.x.x.x.x.x.x.x.x.x.+ Z Q R R R R R R R R R R R R R R R R R R Q Z + x.x.x.x.x.x.x.x.x.x.x.x.x.x.x.x.x.x.x.x.",
"x.x.x.x.x.x.x.x.x.x.x.x.x.x.x.x.x.x.x.- m N V V V V V V V V V V V V V V V V V V V V N m - x.x.x.x.x.x.x.x.x.x.x.x.x.x.x.x.x.x.x.",
"x.x.x.x.x.x.x.x.x.x.x.x.x.x.x.x.x.x.- d P z l h h h h h h h h h h h h h h h h h h l z P d - x.x.x.x.x.x.x.x.x.x.x.x.x.x.x.x.x.x.",
"x.x.x.x.x.x.x.x.x.x.x.x.x.x.x.x.x.+ m P k x k u u u u u u u u u u u u u u i i i i l x k P m + x.x.x.x.x.x.x.x.x.x.x.x.x.x.x.x.x.",
"x.x.x.x.x.x.x.x.x.x.x.x.x.x.x.x.+ Z N z x u i x z z z z z z z z z z z x h ' 7.,.e.b 0 x z N Z + x.x.x.x.x.x.x.x.x.x.x.x.x.x.x.x.",
"x.x.x.x.x.x.x.x.x.x.x.x.x.x.x.- m N b l i k l x z z z z z z z z z x z z } ,.e.e.s.*.P i k M N m - x.x.x.x.x.x.x.x.x.x.x.x.x.x.x.",
"x.x.x.x.x.x.x.x.x.x.x.x.x.x.- d P z l h i x x z z z z z z z z z z z b F e.e.7.e.7.j.e.B l k z P d - x.x.x.x.x.x.x.x.x.x.x.x.x.x.",
"x.x.x.x.x.x.x.x.x.x.x.x.x.+ m P k x i i x z z z z z z z z z z z x z G k.7.e.e.e.e.7.7.z.B i x k P m + x.x.x.x.x.x.x.x.x.x.x.x.x.",
"x.x.x.x.x.x.x.x.x.x.x.x.+ Z N z x u k x z z z z z z z z z z z x k } e.7.e.e.e.e.e.e.e.7.e.P 9 x z N Z + x.x.x.x.x.x.x.x.x.x.x.x.",
"x.x.x.x.x.x.x.x.x.x.x.- m N b l i k z x z z z z z z z z z z z z ' ,.e.e.e.e.e.e.e.e.e.e.e.,.) h l M N m - x.x.x.x.x.x.x.x.x.x.x.",
"x.x.x.x.x.x.x.x.x.x.- d P z l h i x z z z z z z z z z z z z b J e.e.e.e.e.e.e.e.e.e.e.e.e.7.+.h h l z P d - x.x.x.x.x.x.x.x.x.x.",
"x.x.x.x.x.x.x.x.x.+ m P k x i i x z z x z z z z z z z z x z G k.7.e.e.e.e.e.e.e.e.e.e.7.e.' h x h h x k P m + x.x.x.x.x.x.x.x.x.",
"x.x.x.x.x.x.x.x.+ Z N z x u k x z z z z z z z z z z z x h ' e.7.7.7.7.7.7.e.e.e.e.7.7.k.F z x h +.) 9 x z N Z + x.x.x.x.x.x.x.x.",
"x.x.x.x.x.x.x.- m N b l i k z x z z z z z z z z z z z x ..7.j.f.j.j.j.j.j.e.7.e.7.s.e.F M l z ' 4.,.) h l M N m - x.x.x.x.x.x.x.",
"x.x.x.x.x.x.- d P z l h i x z z z z z z z z z z z z z x #.#.+.#.+.#.#.#.+.,.e.e.e.=.' z l M F e.f.5.+.h h l z P d - x.x.x.x.x.x.",
"x.x.x.x.x.+ m P k x i i x z z z z z z z z z z z z z z l k k k k k k k k g ' 7.,.7.V k x z F k.7.e.} h x s i x k P m + x.x.x.x.x.",
"x.x.x.x.+ Z N z x u k x z z z z z z z z z x l i i b u + @ @ @ @ @ @ @ @ + u A M N x z h } e.7.k.G z x z x k u x z N Z + x.x.x.x.",
"x.x.x.- m N b l i k z x z z z z z z z z z j y - * = > 5 4 4 4 4 4 4 4 < 4 > = : - i V ..3.j.e.J b z z z x z k i l b N m - x.x.x.",
"x.x.- d P z l h i x z z z z z z z z x z h 5 , - * & , h i i i i i i s h j 4 ; > 1 8 u ..7.,.' z z z z z z z x i h l z P d - x.x.",
"x.+ m P k x i i x z z x z z z z z z z k 9 + = h i i i u u u u u u u h x z x b b #.7 + i ....h x z z z z z z z x i i x k T m + x.",
"@ Z N z x u k x z z z z z z z z z x j 5 + 0 u u u u u u u q i z z z z z z z z z z H R + m ^ l z z z z z z z z z x k u z x l 9 @ ",
"# Q V l k i l x z z z z z z z z z l e > = u u u u u i h h i k x z z z z z z z z z V H 3 p m N z z z z z z z z z x l h N b l y @ ",
"# R V h u x z z z z z z z z z z z i & - h u u u u u h x x x x z z z z z z z z z z z z #.> > ..z z z z z z z z z z z x ~ V k y @ ",
"# R V h u z z z z z z z z z z z z i * * i u u u z z z z z z z z z z z z z z z z z z z b : 2 ) z z z z z z z z z z z x ~ V k y @ ",
"# R V h u z z z z z z z z z z z z x ; & i u i l z x z z z z z z z z z z z z z z z z z b % 1 #.z z z z z z z z z z z x ~ V k y @ ",
"# R V h u z z z z z z z z z z z z u > , i i k x z z z z z z z z z z z z z z z z z z z x e w v N x z z z z z z z z z x ~ V k y @ ",
"# R V h u z z z z z z z z x x x l + 5 h u x x z z z z z z z z z z z z z z z z z z z z l T c . ! V z z z z z z z z z x ~ V k y @ ",
"# R V h u z z z z z z z x h ..#.k @ 4 i u z z z ~ X.X.~ x z z z x z l z ~ X.X.~ x z z z b y @ Q V z z z z z z z z z x ~ V k y @ ",
"# R V h u z z z z z z z z ' 7.#.k @ 4 h l l N G 7 2 2 7 x b x z l V T H 7 2 2 7 x x z z x 8 @ Q V z z z z z z z z z x ~ V k y @ ",
"# R V h u z z z z z z b J e.j.+.h @ < k x N M f + . X + e y u x N v c c + . X + 8 k x z V p + Q V z z z z z z z z z x ~ V j y @ ",
"# R V h u z z z z x z G k.7.s.#.l $ < h z X.c   @ @ @ @ + . > b X.2   + + @ @ @ . e x l G c # Q N z z z z z z z z z x ~ V j y @ ",
"# R V h u z z z x k } e.7.e.e.e.:.x ; - k _ c o @ + + + @ O > b X.2 . @ + + + + + 5 h ..1 > ~ x x z z z z z z z z z x ~ V j y @ ",
"# R V h u z x z z ' ,.e.e.e.e.e.7.=.z < : V a + @ + + + + > u x N h < + + + + + + 5 i 2 p m N z z z z z z z z z z z x ~ V k y @ ",
"# R V h u z z b J e.e.e.e.e.e.e.7.j.T e + z y X + + + + + 5 k x z n u X + + + + O 6 h . c ~ l z z z z z z z z z z z x ~ V k y @ ",
"# R V h u x z G k.7.e.e.e.e.e.e.7.e.F 8 + x u + # # # # @ 5 h l l x y + @ @ @ @ + u x + c G z z z z z z z z z z z z x ~ V k y @ ",
"# R V h u h } e.7.e.e.e.e.e.e.e.7.j.T e + z z l l l l l k H c + @ y x k y y 0 0 0 k z . c ~ l z z z z z z z z z z z x ~ V k y @ ",
"# R V h i ' ,.e.e.e.e.e.e.e.e.e.7.T e > 6 i k x x x x x z ^ m . + u n z l k l l l z z c 7 p F z z z z z z z z z z z x ~ V k y @ ",
"# R V h i 7.s.e.e.e.e.e.e.e.e.e.,.b - & h q i x z z z z z v r + + < i x x x x x x z z =.> : ..z z z z z z z z z z z x ~ V k y @ ",
"# R V h i ,.e.e.e.e.e.e.e.e.e.e.,.N > * u u i z z z z z b > + # # + > b z z z z z z z ~ 2 2 ) z z z z z z z z z z z x ~ V k y @ ",
"# R V h i 7.e.e.e.e.e.e.e.e.e.s.e.x x e + u i s z z z z z l l l l l l z z z z z x P ~ + f G z z z z z z z z z z z z z ~ V k y @ ",
"# Q V l l X.,.e.d.e.e.e.e.7.s.;.V x x k 8 : * : Z N z x z C C z z C C z x z N H > , 3 f M N z z z z z z z z z z z M H N x l y @ ",
"@ Z N l x H =.e.d.e.e.e.e.7.e.} k x x b b # + $ R N z x z Z Z z z Z Z z x z N R $ + # ~ V l z z z z z z z z z z z V ~ z z k 9 @ ",
"x.@ 6 k x z H -.s.d.e.e.7.k.F z x k ' e.:.z M E + v T k x > > x x > > x k T v + H ~ L x z z z z z z z z z z z l H G z x j 6 + x.",
"x.x.# 5 k z M H -.e.e.e.e.F M l z ' ,.j.e.x x V v 3 t ~ ' : : ' ' : : ' ~ t 3 v N V N z z z z z z z z z z z z H V M z k 5 # x.x.",
"x.x.x.# 6 k l b H =.7.,.' z l M F e.j.,.' x z z T t 3 c c r r c c r r c c 3 t T z l z z z z z z z z z z z x V H M l k 6 # x.x.x.",
"x.x.x.x.+ 9 k z z H :...h x z F k.7.e.} k x z z k T m . . m m . . m m . . m T k z z z z z z z z z z z z z V ~ z z k 9 + x.x.x.x.",
"x.x.x.x.x.+ 6 j x z L G l h } e.7.k.G z x z z z z z N ! ~ N N ~ ~ N N ~ ! N z z z z z z z z z z z z z l H G z x j 6 + x.x.x.x.x.",
"x.x.x.x.x.x.# 5 k z M V G ..,.j.e.J b z z z z z z z x V V x x V V x x V V x z z z z z z z z z z z z z H V M z k 5 # x.x.x.x.x.x.",
"x.x.x.x.x.x.x.# 6 k l M L :.d.,.' z z z z z z z z z z z z z z z z z z z z z z z z z z z z z z z z x V H M l k 6 # x.x.x.x.x.x.x.",
"x.x.x.x.x.x.x.x.+ 9 k z z D :...h x z z z z z z z z z z z z z z z z z z z z z z z z z z z z z z z V ~ z z k 9 + x.x.x.x.x.x.x.x.",
"x.x.x.x.x.x.x.x.x.+ 6 j x z L G l z z z z z z z z z z z z z z z z z z z z z z z z z z z z z z l H G z x j 6 + x.x.x.x.x.x.x.x.x.",
"x.x.x.x.x.x.x.x.x.x.# 5 k z M V H z z z z z z z z z z z z z z z z z z z z z z z z z z z z z z H V M z k 5 # x.x.x.x.x.x.x.x.x.x.",
"x.x.x.x.x.x.x.x.x.x.x.# 6 k l M H V x z z z z z z z z z z z z z z z z z z z z z z z z z z x V H M l k 6 # x.x.x.x.x.x.x.x.x.x.x.",
"x.x.x.x.x.x.x.x.x.x.x.x.+ 9 k z z ~ V z z z z z z z z z z z z z z z z z z z z z z z z z z V ~ z z k 9 + x.x.x.x.x.x.x.x.x.x.x.x.",
"x.x.x.x.x.x.x.x.x.x.x.x.x.+ 6 j x z G H l z z z z z z z z z z z z z z z z z z z z z z l H G z x j 6 + x.x.x.x.x.x.x.x.x.x.x.x.x.",
"x.x.x.x.x.x.x.x.x.x.x.x.x.x.# 5 k z M V H z z z z z z z z z z z z z z z z z z z z z z H V M z k 5 # x.x.x.x.x.x.x.x.x.x.x.x.x.x.",
"x.x.x.x.x.x.x.x.x.x.x.x.x.x.x.# 6 k l M H V M z z z z z z z z z z z z z z z z z z M V H M l k 6 # x.x.x.x.x.x.x.x.x.x.x.x.x.x.x.",
"x.x.x.x.x.x.x.x.x.x.x.x.x.x.x.x.+ 9 k z z ~ H z x x x x x x x x x x x x x x x x z H ~ z z k 9 + x.x.x.x.x.x.x.x.x.x.x.x.x.x.x.x.",
"x.x.x.x.x.x.x.x.x.x.x.x.x.x.x.x.x.+ 6 j x z N ~ ~ ~ ~ ~ ~ ~ ~ ~ ~ ~ ~ ~ ~ ~ ~ ~ ~ N z x j 6 + x.x.x.x.x.x.x.x.x.x.x.x.x.x.x.x.x.",
"x.x.x.x.x.x.x.x.x.x.x.x.x.x.x.x.x.x.# 5 k z x V N V V V V V V V V V V V V V V N V x z k 5 # x.x.x.x.x.x.x.x.x.x.x.x.x.x.x.x.x.x.",
"x.x.x.x.x.x.x.x.x.x.x.x.x.x.x.x.x.x.x.# 6 k l k k k k k k k k k k k k k k k k k k l k 6 # x.x.x.x.x.x.x.x.x.x.x.x.x.x.x.x.x.x.x.",
"x.x.x.x.x.x.x.x.x.x.x.x.x.x.x.x.x.x.x.x.+ 9 0 y y y y y y y y y y y y y y y y y y 0 9 + x.x.x.x.x.x.x.x.x.x.x.x.x.x.x.x.x.x.x.x.",
"x.x.x.x.x.x.x.x.x.x.x.x.x.x.x.x.x.x.x.x.x.@ @ @ @ @ @ @ @ @ @ @ @ @ @ @ @ @ @ @ @ @ @ x.x.x.x.x.x.x.x.x.x.x.x.x.x.x.x.x.x.x.x.x."
};
